<svg width="37" height="35" viewBox="0 0 37 35" fill="none" xmlns="http://www.w3.org/2000/svg">
<path d="M13.5441 33.295C12.5671 34.6306 10.6932 34.9228 9.35588 33.9482L6.65275 31.9781C5.31209 31.001 5.01895 29.1213 5.99843 27.7824L8.74216 24.0318C9.95125 22.379 9.18561 20.0274 7.2352 19.4033L2.84248 17.9976C1.27024 17.4945 0.399876 15.8157 0.894822 14.2408L1.91333 11.0001C2.41134 9.41555 4.10211 8.53722 5.68492 9.04084L10.1704 10.468C12.1052 11.0837 14.08 9.63968 14.08 7.60926V3C14.08 1.34315 15.4231 0 17.08 0H20.488C22.1449 0 23.488 1.34315 23.488 3V7.60215C23.488 9.63464 25.4665 11.0789 27.4023 10.4594L31.8344 9.04115C33.411 8.53664 35.0983 9.40447 35.6048 10.9804L36.6473 14.2235C37.1553 15.8042 36.2829 17.4969 34.7008 18.0003L30.2778 19.4076C28.3244 20.0292 27.5558 22.3832 28.7661 24.0377L31.4984 27.7727C32.4807 29.1154 32.1828 31.001 30.8344 31.9754L28.0921 33.9573C26.7505 34.9268 24.8772 34.6266 23.9058 33.2864L21.1699 29.5117C19.9753 27.8637 17.5213 27.8583 16.3195 29.5011L13.5441 33.295Z" fill="#FFAB00"/>
</svg>
