<svg width="16" height="16" viewBox="0 0 16 16" fill="none" xmlns="http://www.w3.org/2000/svg">
<path d="M5.99992 14.6666H9.99992C13.3333 14.6666 14.6666 13.3333 14.6666 9.99992V5.99992C14.6666 2.66659 13.3333 1.33325 9.99992 1.33325H5.99992C2.66659 1.33325 1.33325 2.66659 1.33325 5.99992V9.99992C1.33325 13.3333 2.66659 14.6666 5.99992 14.6666Z" stroke="#1E4841" stroke-width="1.2" stroke-linecap="round" stroke-linejoin="round"/>
<path d="M4.46655 6.17334L7.99988 8.22001L11.5066 6.18667" stroke="#1E4841" stroke-width="1.2" stroke-linecap="round" stroke-linejoin="round"/>
<path d="M8 11.8467V8.21338" stroke="#1E4841" stroke-width="1.2" stroke-linecap="round" stroke-linejoin="round"/>
<path d="M7.17326 4.1934L5.03992 5.38007C4.55992 5.64673 4.15991 6.32007 4.15991 6.8734V9.1334C4.15991 9.68673 4.55325 10.3601 5.03992 10.6267L7.17326 11.8134C7.62659 12.0667 8.37325 12.0667 8.83325 11.8134L10.9666 10.6267C11.4466 10.3601 11.8466 9.68673 11.8466 9.1334V6.86674C11.8466 6.3134 11.4533 5.64007 10.9666 5.3734L8.83325 4.18673C8.37325 3.9334 7.62659 3.9334 7.17326 4.1934Z" stroke="#1E4841" stroke-width="1.2" stroke-linecap="round" stroke-linejoin="round"/>
</svg>
